<svg viewBox="0 0 200 200" xmlns="http://www.w3.org/2000/svg">
  <path fill="#1E293B" d="M39.1,-70.4C49,-62,54.1,-48.1,63.2,-35.4C72.4,-22.8,85.6,-11.4,87.4,1C89.1,13.4,79.3,26.8,68.2,36C57,45.2,44.5,50.3,32.9,56.8C21.3,63.3,10.7,71.2,-0.1,71.4C-10.9,71.6,-21.8,64.1,-33.9,57.9C-46,51.7,-59.2,46.8,-67.5,37.4C-75.7,27.9,-78.8,14,-80.7,-1.1C-82.7,-16.2,-83.5,-32.5,-76.2,-43.4C-68.9,-54.4,-53.5,-60.1,-39.4,-66C-25.3,-71.9,-12.7,-78,1,-79.7C14.6,-81.4,29.3,-78.7,39.1,-70.4Z" transform="translate(100 100)" />
</svg>
