<?xml version="1.0" encoding="UTF-8" standalone="no"?>
<!-- Created with Inkscape (http://www.inkscape.org/) -->

<svg
   width="720"
   height="1280"
   viewBox="0 0 720 1279.9996"
   version="1.1"
   id="svg5"
   xml:space="preserve"
   inkscape:version="1.2.1 (9c6d41e410, 2022-07-14)"
   sodipodi:docname="home_background.svg"
   xmlns:inkscape="http://www.inkscape.org/namespaces/inkscape"
   xmlns:sodipodi="http://sodipodi.sourceforge.net/DTD/sodipodi-0.dtd"
   xmlns="http://www.w3.org/2000/svg"
   xmlns:svg="http://www.w3.org/2000/svg"><sodipodi:namedview
     id="namedview7"
     pagecolor="#ffffff"
     bordercolor="#000000"
     borderopacity="0.25"
     inkscape:showpageshadow="2"
     inkscape:pageopacity="0.0"
     inkscape:pagecheckerboard="0"
     inkscape:deskcolor="#d1d1d1"
     inkscape:document-units="px"
     showgrid="false"
     inkscape:zoom="0.87407407"
     inkscape:cx="421.01695"
     inkscape:cy="1145.7839"
     inkscape:window-width="1280"
     inkscape:window-height="733"
     inkscape:window-x="-9"
     inkscape:window-y="-9"
     inkscape:window-maximized="1"
     inkscape:current-layer="layer1" /><defs
     id="defs2" /><g
     inkscape:label="Capa 1"
     inkscape:groupmode="layer"
     id="layer1"><path
       fill="#dc2626"
       fill-opacity="1"
       d="M 0,10.841097 21.440259,20.96245 C 45.168655,30.676151 93.483497,45.38098 141.51232,56.632355 189.54115,67.883738 240.71615,71.999586 288.74498,70.266273 336.77381,68.654583 384.2306,59.495709 432.25942,51.37646 480.28825,43.378861 528.31707,36.688855 576.34589,33.556713 624.37473,30.30294 672.40356,30.30294 696.41798,30.30294 H 720.4324 V 1.1101747 H 696.41798 576.34589 432.25942 288.17295 144.08647 24.014412 0 Z"
       id="path10"
       style="stroke-width:0.390046;image-rendering:optimizeSpeed"
       sodipodi:nodetypes="ccscccscccccccccc" /><path
       fill="#1e293b"
       fill-opacity="1"
       d="m 0,1219.0594 40.000003,10.3231 c 40.000006,10.3236 120.000017,30.9706 200.000017,32.1104 80.00001,1.226 160.00001,-17.2703 240.00002,-25.2276 79.99999,-7.958 159.99999,-5.8072 200.00001,-4.5813 L 720,1232.8238 V 1281 h -39.99995 c -40.00002,0 -120.00002,0 -200.00001,0 -80.00001,0 -160.00001,0 -240.00002,0 -80,0 -160.000011,0 -200.000017,0 H 0 Z"
       id="path200"
       style="stroke-width:0.327929" /><path
       style="fill:#000000"
       d="m 243.68644,56.059323 9.15255,17.161017"
       id="path262" /></g></svg>
